              ***********************************************

                PublicHash - Largest Bittorrent Community
      
                          http://publichash.com/
    
              ***********************************************
IMDB Link - http://www.imdb.com/title/tt1951261/

Source - The Hangover Part 3 2013 TS Xvid Mp3-SUFFiCE (Thumbs Up   Respect)

NOTES - Enjoy.  Has some flickering and does go a little out of focus here and there, but more than watchable.  Did try and sort the flickering but didnt seem to make much difference using a deflicker so decided to leave it as is, just added some sharpening.

General
Complete name                            : The Hangover Part 3 2013 TS AAC x264-SSDD.mp4
Format                                   : MPEG-4
Format profile                           : Base Media
Codec ID                                 : isom
File size                                : 450 MiB
Duration                                 : 1h 34mn
Overall bit rate mode                    : Variable
Overall bit rate                         : 662 Kbps

Video
ID                                       : 1
Format                                   : AVC
Format/Info                              : Advanced Video Codec
Format profile                           : High@L4.1
Format settings, CABAC                   : Yes
Format settings, ReFrames                : 4 frames
Codec ID                                 : avc1
Codec ID/Info                            : Advanced Video Coding
Duration                                 : 1h 34mn
Bit rate                                 : 594 Kbps
Maximum bit rate                         : 1 585 Kbps
Width                                    : 720 pixels
Height                                   : 274 pixels
Display aspect ratio                     : 2.628
Frame rate mode                          : Constant
Frame rate                               : 25.857 fps
Color space                              : YUV
Chroma subsampling                       : 4:2:0
Bit depth                                : 8 bits
Scan type                                : Progressive
Bits/(Pixel*Frame)                       : 0.116
Stream size                              : 403 MiB (90%)
Writing library                          : x264 core 130 r2273 b3065e6

Audio
ID                                       : 2
Format                                   : AAC
Format/Info                              : Advanced Audio Codec
Format profile                           : LC
Codec ID                                 : 40
Duration                                 : 1h 34mn
Bit rate mode                            : Variable
Bit rate                                 : 64.0 Kbps
Maximum bit rate                         : 67.6 Kbps
Channel(s)                               : 2 channels
Channel positions                        : Front: L R
Sampling rate                            : 48.0 KHz
Compression mode                         : Lossy
Stream size                              : 43.5 MiB (10%)

Gallery: 
http://imgsure.com/?g=434064